<?xml version="1.0" encoding="utf-8"?>
<!-- Generator: Adobe Illustrator 24.3.0, SVG Export Plug-In . SVG Version: 6.00 Build 0)  -->
<svg version="1.1" id="Layer_1" xmlns="http://www.w3.org/2000/svg" xmlns:xlink="http://www.w3.org/1999/xlink" x="0px" y="0px"
	 viewBox="0 0 500 500" style="enable-background:new 0 0 500 500;" xml:space="preserve">
<style type="text/css">
	.st0{fill:#BF8A6B;}
	.st1{fill:#734A31;}
	.st2{font-family:'MyriadHebrew-Bold';}
	.st3{font-size:44.1827px;}
</style>
<g>
	<path class="st0" d="M467.49,244.28l-222.06,0.34l-0.34-222.16C366.54,24.97,464.61,122.84,467.49,244.28z"/>
	<path class="st0" d="M235.08,244.64l-222.16,0.34C15.42,123.54,113.3,25.36,234.73,22.48L235.08,244.64z"/>
	<path class="st0" d="M235.44,477.16c-121.45-2.51-219.62-100.38-222.5-221.82L235.09,255L235.44,477.16z"/>
</g>
<path class="st0" d="M408.56,370.01c0,0.53,0,1.03-0.03,1.57c-0.82,36.75-30.48,66.42-67.24,67.24c-0.53,0.03-1.03,0.03-1.57,0.03
	c-0.53,0-1.03,0-1.57-0.03c-36.75-0.82-66.42-30.48-67.24-67.24c-0.03-0.53-0.03-1.03-0.03-1.57c0-0.53,0-1.03,0.03-1.57
	c0.82-36.75,30.48-66.39,67.24-67.2c0.53-0.03,1.03-0.03,1.57-0.03c0.53,0,1.03,0,1.57,0.03c36.75,0.82,66.42,30.45,67.24,67.2
	C408.56,368.98,408.56,369.48,408.56,370.01z"/>
<text transform="matrix(1 0 0 1 246.5269 287.0518)" class="st1 st2 st3">Collections</text>
</svg>
